<?xml version="1.0" encoding="UTF-8" standalone="no"?>
<svg
   xmlns:dc="http://purl.org/dc/elements/1.1/"
   xmlns:cc="http://creativecommons.org/ns#"
   xmlns:rdf="http://www.w3.org/1999/02/22-rdf-syntax-ns#"
   xmlns:svg="http://www.w3.org/2000/svg"
   xmlns="http://www.w3.org/2000/svg"
   xmlns:sodipodi="http://sodipodi.sourceforge.net/DTD/sodipodi-0.dtd"
   xmlns:inkscape="http://www.inkscape.org/namespaces/inkscape"
   width="516pt"
   height="351pt"
   viewBox="0 0 516 351"
   version="1.1"
   id="svg2"
   sodipodi:version="0.32"
   inkscape:version="0.46"
   sodipodi:docname="logo0.svg"
   inkscape:output_extension="org.inkscape.output.svg.inkscape">
  <metadata
     id="metadata17">
    <rdf:RDF>
      <cc:Work
         rdf:about="">
        <dc:format>image/svg+xml</dc:format>
        <dc:type
           rdf:resource="http://purl.org/dc/dcmitype/StillImage" />
      </cc:Work>
    </rdf:RDF>
  </metadata>
  <defs
     id="defs15" />
  <sodipodi:namedview
     inkscape:window-height="806"
     inkscape:window-width="1152"
     inkscape:pageshadow="2"
     inkscape:pageopacity="0.0"
     guidetolerance="10.0"
     gridtolerance="10.0"
     objecttolerance="10.0"
     borderopacity="1.0"
     bordercolor="#666666"
     pagecolor="#ffffff"
     id="base"
     showgrid="true"
     inkscape:zoom="0.86511628"
     inkscape:cx="275.7043"
     inkscape:cy="219.375"
     inkscape:window-x="-3"
     inkscape:window-y="-2"
     inkscape:current-layer="svg2">
    <inkscape:grid
       type="xygrid"
       id="grid3744" />
  </sodipodi:namedview>
  <path
     d="M 328.70319,40.974436 C 342.76386,26.249371 361.06889,15.071899 381.22116,11.290894 C 387.94474,10.874468 394.5697,10.474563 401.19466,10.074657 C 408.80686,10.726108 416.51867,12.577592 423.45897,15.87641 C 434.67618,22.311798 444.30082,31.345975 451.82225,41.746363 C 463.04634,56.697615 470.65577,74.28217 474.30363,92.42888 C 474.45673,98.790999 475.6126,105.08655 474.94365,111.38357 C 470.32033,106.78413 468.96671,99.913344 465.34567,94.639058 C 460.52313,87.639552 455.83176,80.212502 449.07072,74.957191 C 439.95573,65.939041 427.3257,60.754227 414.51886,60.567287 C 409.66966,61.278117 404.55615,60.41093 399.92171,62.4039 C 386.32832,65.390496 374.6628,73.833583 364.9052,83.376605 C 361.98192,87.110823 358.46638,90.335882 355.64172,94.05358 C 352.99877,98.856166 349.45118,103.10053 347.25229,108.13291 C 339.37252,122.22827 335.8017,138.4409 334.7461,154.53642 C 335.2937,160.83246 335.43028,167.09595 336.0765,173.37547 C 337.88825,177.53331 336.95597,183.46886 341.70899,185.81593 C 344.84949,186.40523 347.95548,184.97246 350.74906,183.49061 C 358.01141,178.42126 364.33558,171.98815 370.19917,165.22661 C 377.49357,159.13796 382.83001,151.04522 389.64731,144.52952 C 393.49176,141.45215 396.15172,137.35647 399.91406,134.39425 C 406.91161,127.1386 415.02806,121.11504 423.42436,115.55158 C 430.03034,112.01167 437.45886,109.14513 445.13665,109.5828 C 454.34388,110.67685 463.01186,115.81554 468.42665,123.3242 C 476.72106,134.10209 481.43337,147.10225 484.9126,160.00476 C 486.34833,166.7604 485.91016,173.82992 486.75413,180.68467 C 485.86863,203.84921 482.28719,227.26253 474.61105,249.23244 C 471.5265,256.8466 468.65571,264.52636 464.00868,271.28691 C 462.57983,273.04713 461.67764,275.53029 459.37669,276.32126 C 459.52095,271.73441 461.3093,267.27775 461.76595,262.73997 C 462.23863,257.69254 463.02371,252.69417 462.4771,247.61468 C 463.72031,239.90336 462.20149,232.04632 462.113,224.25387 C 460.19968,216.4629 460.04512,208.27596 457.45793,200.69925 C 456.03971,195.25878 454.48982,189.63759 451.46103,184.87246 C 449.55164,181.9477 448.26656,178.5128 445.3714,176.36151 C 442.3606,173.51983 438.23335,172.48745 434.25429,171.73443 C 431.22992,172.44378 428.23859,173.35039 425.2803,174.45426 C 418.41196,178.84925 412.84376,184.95295 407.58796,191.10572 C 402.62656,195.3841 398.43864,200.64825 392.72029,204.03949 C 384.57031,209.25752 374.89089,213.81918 364.95974,212.03525 C 351.36341,211.37219 338.74891,205.06945 327.10416,198.50289 C 321.92261,194.80809 316.314,191.5904 312.15077,186.71111 C 301.27458,175.04756 293.51942,160.22502 291.56668,144.32921 C 290.55997,139.52957 289.40507,134.45057 290.6177,129.58338 C 290.40473,110.15159 296.75163,91.141937 304.9739,73.643241 C 309.7351,65.748244 314.01919,57.426194 320.2938,50.697208 C 322.74048,47.144213 325.18716,43.591219 328.70319,40.974436 z"
     id="path6"
     style="fill:#000000;stroke:#000000;stroke-width:0.09375" />
  <path
     id="path3742"
     d="M 172.63194,303.85032 C 158.57127,318.57538 140.26624,329.75285 120.11397,333.53386 C 113.39038,333.95029 106.76542,334.35019 100.14046,334.7501 C 92.528263,334.09865 84.816453,332.24716 77.87615,328.94834 C 66.658941,322.51296 57.034304,313.47878 49.512872,303.07839 C 38.288788,288.12714 30.679357,270.54258 27.031489,252.39587 C 26.878394,246.03376 25.722519,239.7382 26.391472,233.44118 C 31.014798,238.04062 32.368416,244.91141 35.989453,250.1857 C 40.811995,257.1852 45.503363,264.61225 52.264406,269.86756 C 61.379393,278.88571 74.009425,284.07053 86.816261,284.25747 C 91.665459,283.54664 96.77897,284.41382 101.41341,282.42085 C 115.0068,279.43426 126.67232,270.99117 136.42992,261.44815 C 139.35321,257.71393 142.86874,254.48887 145.69341,250.77117 C 148.33635,245.96859 151.88395,241.72423 154.08283,236.69184 C 161.96261,222.59648 165.53342,206.38386 166.58902,190.28834 C 166.04142,183.9923 165.90485,177.7288 165.25862,171.44928 C 163.44687,167.29145 164.37916,161.35589 159.62613,159.00882 C 156.48563,158.41952 153.37965,159.8523 150.58606,161.33415 C 143.32371,166.4035 136.99954,172.83661 131.13596,179.59814 C 123.84155,185.68679 118.50512,193.77953 111.68782,200.29524 C 107.84336,203.3726 105.18341,207.46829 101.42106,210.43051 C 94.423517,217.68615 86.307067,223.70971 77.910767,229.27318 C 71.304783,232.81309 63.87626,235.67963 56.198472,235.24195 C 46.991242,234.14791 38.323265,229.00922 32.908475,221.50055 C 24.614063,210.72267 19.901756,197.72251 16.42252,184.81999 C 14.986795,178.06435 15.424966,170.99484 14.580997,164.14008 C 15.466492,140.97554 19.047931,117.56223 26.724071,95.592317 C 29.808627,87.978151 32.67941,80.298399 37.326446,73.537847 C 38.755296,71.777624 39.657487,69.29447 41.958435,68.503497 C 41.814178,73.090347 40.025826,77.547004 39.569172,82.084787 C 39.09649,87.132219 38.311409,92.130583 38.858026,97.210072 C 37.614819,104.92139 39.133632,112.77844 39.222122,120.57088 C 41.13544,128.36185 41.290008,136.5488 43.87719,144.12551 C 45.295413,149.56597 46.845302,155.18717 49.874091,159.95229 C 51.783481,162.87705 53.068566,166.31196 55.963726,168.46325 C 58.974522,171.30492 63.101772,172.3373 67.080836,173.09033 C 70.105206,172.38097 73.096537,171.47436 76.054828,170.3705 C 82.923161,165.9755 88.491361,159.8718 93.747163,153.71903 C 98.708561,149.44065 102.89649,144.1765 108.61484,140.78527 C 116.76482,135.56724 126.44424,131.00557 136.37538,132.7895 C 149.97172,133.45256 162.58621,139.7553 174.23096,146.32187 C 179.41252,150.01666 185.02112,153.23435 189.18435,158.11365 C 200.06055,169.7772 207.81571,184.59973 209.76845,200.49554 C 210.77516,205.29518 211.93005,210.37418 210.71743,215.24137 C 210.93039,234.67316 204.58349,253.68282 196.36123,271.18151 C 191.60003,279.07651 187.31593,287.39856 181.04132,294.12755 C 178.59464,297.68054 176.14796,301.23354 172.63194,303.85032 z"
     style="fill:#000000;stroke:#000000;stroke-width:0.09375" />
  <path
     style="fill:#000000;stroke:#000000;stroke-width:0.09375"
     d="M 214.13621,58.099952 C 218.98442,56.17257 224.09597,54.606653 229.52139,54.914631 C 238.69361,53.378316 248.19819,56.247626 255.99457,61.025345 C 260.07471,64.803229 264.92735,68.350331 266.75659,73.823343 C 269.44142,80.166978 268.75693,87.581928 265.50669,93.601557 C 261.92949,101.9066 254.55298,108.11039 246.73094,112.25956 C 240.71622,115.09208 234.37258,117.77691 227.61547,117.38781 C 220.43228,118.69236 213.08243,117.18582 206.38943,114.75812 C 198.11743,111.37817 190.73061,104.80817 188.43832,95.965356 C 185.7535,89.621721 188.67433,82.846122 191.34934,77.024237 C 196.71832,68.520472 204.58747,61.6258 214.13621,58.099952 z"
     id="path10" />
  <path
     style="fill:#000000;stroke:#000000;stroke-width:0.09375"
     d="M 215.38552,139.41071 C 220.737,129.59177 231.9614,124.56854 242.76219,124.28034 C 248.28672,125.18007 254.13968,125.61923 259.07393,128.44291 C 266.80275,131.00129 271.74044,138.08291 274.17943,145.38025 C 274.87718,154.38876 274.58867,163.56246 276.86444,172.30665 C 281.66327,190.66615 294.31768,205.68201 307.7431,218.64225 C 314.44052,226.54444 323.66771,231.99504 330.29954,240.111 C 319.90929,239.82347 309.55109,238.51664 299.40618,236.66712 C 286.91027,234.70442 274.82342,230.34116 263.93512,224.05347 C 257.93152,220.29357 251.33666,217.24108 246.41696,212.08292 C 237.69844,205.43179 230.60603,196.98741 224.63105,187.95028 C 218.17798,177.26956 212.74324,165.40433 212.05906,152.8448 C 212.61434,148.2905 213.23521,143.52242 215.38552,139.41071 z"
     id="path12" />
</svg>
